<?xml version="1.0" encoding="utf-8"?>
<!-- Generator: Adobe Illustrator 22.1.0, SVG Export Plug-In . SVG Version: 6.00 Build 0)  -->
<svg version="1.1" id="Layer_1" xmlns="http://www.w3.org/2000/svg" xmlns:xlink="http://www.w3.org/1999/xlink" x="0px" y="0px"
	 viewBox="0 0 864 864" style="enable-background:new 0 0 864 864;" xml:space="preserve">
<g>
	<g>
		<path d="M296.7,240.5c10.5,7.6,20.9,15,31.4,22.6c31.5-33.3,62.9-66.5,94.4-99.8c38.8,40.3,77.4,80.5,116.1,120.9
			c12.6-6,25.3-11.9,38-17.9c26.1,25.8,52.1,51.4,78.1,77.2c9.8-4.4,19.5-8.8,29.2-13.2c0.6,0.7,1.1,1.2,1.6,1.8
			c23.3,28,46.7,56.1,70,84.1c0.8,1,1.4,1.9,1.2,3.2c-0.1,0.4,0,0.8,0,1.2c0,92.6,0,185.3,0,277.9c0,1,0,2.1,0,2.8
			c-0.2,0.3-0.3,0.4-0.3,0.5c-0.1,0-0.1,0.1-0.2,0.1c-0.7,0.1-1.4,0.1-2.1,0.1c-214.9,0-429.8,0-644.6-0.1c-0.1,0-0.3-0.1-0.7-0.3
			c0-0.7,0-1.6,0-2.4c0-93.1,0-186.2,0-279.4c0-1.5,0.4-2.7,1.4-3.9c11.4-13.1,22.7-26.3,34-39.5c1.2-1.3,2.2-1.7,3.9-1.2
			c3.5,1.1,7.1,1.8,10.7,2.8c1.6,0.5,2.6,0.1,3.8-1.1c11.7-12.2,23.4-24.3,35.1-36.5c0.4-0.4,0.8-0.8,1.2-1.2c0.8-1,1.6-1.2,2.9-1
			c5.6,1.1,11.2,2,16.7,3.2c1.7,0.4,2.6,0,3.6-1.4c12.3-16.5,24.7-33,37.1-49.6c12-16,24-32,36-48
			C295.5,241.9,296,241.3,296.7,240.5z M711.3,458.5c-64.7,0-129.2,0-193.8,0c0,53.4,0,106.6,0,159.9c3,0.5,40.3,0.4,42.1-0.2
			c0-39.1,0-78.2,0-117.5c11.3,0,22.3,0,33.6,0c0,6.7,0,13.2,0,19.8c0,6.6,0,13.1,0,19.7c0,6.5,0,13,0,19.4c0,6.6,0,13.1,0,19.7
			c0,6.6,0,13.1,0,19.7c0,6.5-0.1,13,0.1,19.6c14.2,0,28,0,41.8,0c0.1-0.2,0.2-0.3,0.2-0.4c0-0.1,0-0.2,0.1-0.2c0-0.1,0-0.2,0-0.2
			c0-0.1,0-0.2,0-0.2c0-0.2,0-0.3,0-0.5c0-38.1,0-76.1,0-114.2c0-0.2,0-0.3,0-0.5c0-0.2,0-0.3,0-0.5c0-0.1,0-0.2,0-0.2
			c0-0.2,0-0.3,0.1-0.5c0-0.1,0.1-0.1,0.1-0.2s0.1-0.1,0.2-0.2c5-0.5,31.5-0.2,33.4,0.3c0,39.1,0,78.3,0,117.5c14.1,0,28,0,42,0
			C711.3,565.1,711.3,511.9,711.3,458.5z M314.3,517.4c-39.4,0-78.5,0-117.8,0c0-5.7,0-11.2,0-16.9c39.3,0,78.5,0,117.9,0
			c0-14.2,0-28.1,0-42c-53.6,0-106.8,0-160.1,0c0,33.7,0,67.3,0,101.1c39.4,0,78.6,0,118,0c-0.1,5.8,0.2,11.2-0.2,16.9
			c-39.4,0-78.6,0-117.8,0c0,14.1,0,28,0,42c53.4,0,106.6,0,160,0C314.3,584.9,314.3,551.3,314.3,517.4z M496,576.5
			c-39.4,0-78.6,0-117.9,0c0-5.7,0-11.1,0-16.9c3.4,0,6.8,0,10.1,0c3.4,0,6.7,0,10.1,0c3.4,0,6.7,0,10.1,0c3.4,0,6.7,0,10.1,0
			c3.4,0,6.7,0,10.1,0c3.4,0,6.9,0,10.3,0c3.4,0,6.7,0,10.1,0c3.4,0,6.7,0,10.1,0c3.4,0,6.7,0,10.1,0c3.3,0,6.6,0.1,9.9-0.1
			c0.5-4,0.3-40.2-0.2-42.2c-33.5,0-67,0-100.5,0c-0.5-3.1-0.4-15,0.2-16.9c39.1,0,78.2,0,117.3,0c0.2-0.4,0.3-0.5,0.3-0.6
			c0.1-0.7,0.1-1.4,0.1-2.2c0-13-0.1-25.9-0.1-38.9c0-0.1-0.1-0.1-0.1-0.2c0-0.1-0.1-0.1-0.2-0.1c-53.2,0-106.5,0-159.8,0
			c-0.1,0.5-0.2,0.8-0.2,1.1c0,52.6,0,105.3,0,157.9c0,0.2,0.1,0.5,0.1,0.7c0,0.1,0.1,0.1,0.1,0.2c0.1,0.1,0.1,0.1,0.2,0.1
			c4.9,0.5,157.9,0.3,159.8-0.3C496,604.5,496,590.7,496,576.5z M539.7,307.6c-38.8-38.1-77.4-75.9-116.1-113.9
			c-29.7,30.8-59.4,61.4-89,92c-11.3-7.4-22.4-14.6-33.5-21.7c-4,4.5-65.1,87.1-65.7,88.7c0.1,0,0.2,0,0.2,0
			c21-16.6,42.1-33.2,63.1-49.7c0.2-0.1,0.4-0.3,0.6-0.4c0.1,0,0.2,0,0.2,0c0.1,0,0.1,0.1,0.3,0.1c1.8,12.1,3.5,24.2,5.4,36.8
			c28.6-20.3,56.8-40.3,85.1-60.4c0.1,0.1,0.3,0.2,0.4,0.3c-1.3,4.4-2.7,8.8-4,13.2c-1.3,4.4-2.8,8.8-3.9,13.3
			c0.2,0.1,0.3,0.1,0.5,0.2c9.7-11.9,19.4-23.9,29.3-36.1c14,18.4,27.9,36.5,41.7,54.6c0.2-0.1,0.3-0.1,0.5-0.2
			c-0.3-5.7-0.7-11.4-1-17.1c-0.3-5.8-0.9-11.5-0.9-17.7c32,21.2,63.6,42,95.3,63c3-7.9,5.8-15.5,8.7-23.4
			c5.8,2.9,11.3,5.6,16.7,8.4c5.4,2.7,10.9,5.5,16.3,8.1c5.5,2.7,10.8,5.5,16.6,8.2c-0.2-3.5-1.6-6.4-1.6-9.8
			c13.4,5.8,26.5,11.5,39.6,17.2c0.1-0.1,0.2-0.3,0.3-0.4c-23.9-23.6-47.7-47.1-71.6-70.7C562.1,296.2,551,301.8,539.7,307.6z
			 M624.9,664.1c1.1-9.3,2.1-18.6,3.2-28.1c-2.2,0-4,0.1-5.8,0c-1.3-0.1-2,0.5-2.6,1.6c-2.2,4.2-4.4,8.3-6.7,12.5
			c-0.3,0.6-0.7,1.2-1.2,2.1c-0.9-5.6-1.7-10.8-2.5-16c-2.7,0-5.1,0-7.6,0c-2.5,9.3-4.9,18.5-7.4,27.9c2.5,0,4.6,0,6.9,0
			c1.4-5.4,2.8-10.6,4.3-16.3c0.7,4.2,1.4,8,2.1,11.9c1.7,0,3.1-0.1,4.5,0c1.1,0.1,1.7-0.4,2.2-1.4c1.6-2.9,3.2-5.7,4.8-8.6
			c0.2-0.4,0.5-0.8,1.1-1.6c-0.7,5.6-1.4,10.7-2,16C620.6,664.1,622.6,664.1,624.9,664.1z M420.2,664.1c2.5,0,4.6,0,6.9,0
			c1.4-5.4,2.8-10.7,4.2-16.3c0.7,4.2,1.4,7.9,2,11.7c2.2,0,4.1,0,6.1,0c2.2-3.8,4.2-7.6,6.3-11.3c0.1,0,0.2,0.1,0.2,0.1
			c-0.7,5.2-1.3,10.5-2,15.8c2.4,0,4.4,0,6.7,0c1.1-9.3,2.1-18.6,3.2-28.1c-2,0-3.8,0.1-5.5,0c-1.5-0.1-2.3,0.4-3,1.7
			c-2.2,4.3-4.5,8.6-6.9,12.9c-0.2,0.4-0.6,0.8-1,1.3c-0.8-5.4-1.6-10.6-2.4-15.8c-2.7,0-5,0-7.6,0
			C425.2,645.4,422.7,654.6,420.2,664.1z M678.2,664.1c1.8-9.4,3.6-18.6,5.4-28c-2.4,0-4.5,0-6.9,0c-1.1,5.5-2.1,11-3.2,16.8
			c-2.3-5.8-4.4-11.3-6.6-16.7c-2.9-0.4-5.1-0.3-6.9,0.2c-1.8,9.2-3.6,18.3-5.3,27.6c2.5,0,4.6,0,6.9,0c1.1-5.6,2.1-11,3.2-16.7
			c2.3,5.8,4.5,11.4,6.7,16.8C673.9,664.1,675.9,664.1,678.2,664.1z M507.2,664.1c1.8-9.5,3.6-18.7,5.4-28c-2.5,0-4.6,0-6.9,0
			c-1.1,5.6-2.1,11.1-3.3,16.9c-1.2-3.2-2.3-5.9-3.3-8.7c-1.1-2.8-2.2-5.6-3.3-8.2c-2.4,0-4.5,0-6.7,0c-0.9,4.7-1.9,9.3-2.7,13.9
			c-0.9,4.7-2,9.3-2.6,14.1c2.4,0,4.4,0,6.7,0c1.1-5.5,2.1-11,3.2-16.8c2.3,5.8,4.5,11.3,6.7,16.8
			C502.9,664.1,505,664.1,507.2,664.1z M560.6,664.1c1.8,0,3.6,0.3,5.4-0.2c1-5.2,2-10.2,2.9-15.3c-2.8-0.6-8.3-0.5-10.1,0.1
			c-0.3,1.7-0.6,3.4-0.9,5.3c1.4,0.1,2.5,0.2,3.6,0.2c-0.2,2-0.2,2-1.1,2.6c-1.8,1.1-3.8,1.6-6,1.4c-3.5-0.3-5.7-2.6-5.8-6.1
			c-0.3-6.5,5.2-11.4,11.8-10.2c1.7,0.3,3.3,1,5.1,1.6c1.2-1.4,2.4-2.9,3.7-4.4c-5.2-4.2-13.1-4.8-19-1.6c-5.8,3.1-9.3,9.6-8.7,15.9
			c0.6,5.9,4.5,10,10.3,11c3,0.5,5.7-0.2,8.4-1.8C560.3,663.2,560.5,663.6,560.6,664.1z M249,636.1c-1.8,9.4-3.6,18.6-5.4,28
			c2.5,0,4.6,0,6.8,0c0.6-3.2,1.3-6.2,1.9-9.2c1.3,0,2.4,0,3.5,0c1.1,3.2,2.1,6.2,3.1,9.2c2.5,0,4.7,0,7.3,0
			c-1.4-3.9-2.8-7.6-4.1-11.4c3.4-1.6,5-4.3,5.6-7.8c0.9-4.9-1.8-8.5-6.7-8.8C257.1,635.9,253.2,636.1,249,636.1z M239,664.1
			c-1.5-4-2.8-7.7-4.2-11.4c3.8-2,5.6-5.1,5.7-9.2c0.1-4.1-2.1-7-6.2-7.4c-4.1-0.3-8.3-0.1-12.5-0.1c-1.8,9.3-3.6,18.6-5.4,28
			c2.4,0,4.6,0,6.8,0c0.7-3.2,1.3-6.3,2-9.3c1.3,0,2.3,0,3.5,0c1.1,3.2,2.1,6.2,3.2,9.3C234.2,664.1,236.4,664.1,239,664.1z
			 M293.9,664.1c-1.3-9.4-2.6-18.7-3.9-28.1c-2.3,0-4.2,0.1-6.1,0c-1.4-0.1-2.1,0.5-2.7,1.7c-4.2,8.2-8.5,16.3-12.7,24.5
			c-0.3,0.5-0.5,1.1-0.8,2c2.1,0,3.9,0,5.7,0c1,0,1.6-0.4,2-1.3c0.7-1.6,1.5-3.1,2.2-4.6c3.1,0,5.8,0,8.7,0c0.3,2,0.6,3.8,0.8,5.7
			C289.5,664.1,291.5,664.1,293.9,664.1z M453.7,664.2c2.3,0,4.1-0.1,5.8,0c1.1,0,1.8-0.3,2.2-1.4c0.7-1.5,1.4-3,2.2-4.5
			c3,0,5.8,0,8.7,0c0.3,2,0.6,3.8,0.8,5.8c2.3,0,4.4,0.3,6.7-0.2c-1.3-9.3-2.6-18.6-3.9-27.8c-2.8,0-5.3,0-8,0
			C463.5,645.3,458.7,654.5,453.7,664.2z M518.4,664.1c0.7-1.5,1.5-3.1,2.3-4.6c0.3-0.7,0.6-1.3,1.5-1.2c2.5,0,5.1,0,7.7,0
			c0.3,2.1,0.5,3.9,0.8,5.8c2.3,0,4.4,0,6.8,0c-1.3-9.4-2.6-18.6-3.9-27.9c-2.8,0-5.3,0-8,0c-4.8,9.2-9.6,18.5-14.5,28
			C513.7,664.1,515.9,664.1,518.4,664.1z M636.6,636.1c-1.8,9.4-3.6,18.6-5.5,27.9c6.2,0,12.1,0,18.2,0c0.4-1.9,0.7-3.7,1.2-5.9
			c-3.9,0-7.5,0-11.3,0c0.4-1.9,0.7-3.5,1.1-5.4c2.9,0,5.7,0,8.5,0c0.4-2,0.7-3.8,1.1-5.8c-3,0-5.6,0-8.5,0c0.4-1.8,0.7-3.4,1-5.1
			c3.6,0,7.1,0,10.7,0c0.4-2,0.7-3.8,1.1-5.7C648.3,636.1,642.6,636.1,636.6,636.1z M577.1,636.1c-1.8,9.4-3.6,18.6-5.5,27.9
			c6.2,0,12.1,0,18.2,0c0.4-1.9,0.7-3.7,1.1-5.8c-3.8,0-7.4,0-11.3,0c0.4-2,0.7-3.6,1.1-5.4c3,0,5.7,0,8.5,0
			c0.4-1.9,0.7-3.7,1.1-5.8c-2.9,0-5.6,0-8.5,0c0.4-1.9,0.7-3.5,1-5.3c3.7,0,7.2,0,10.7,0c0.4-2,0.7-3.8,1.1-5.7
			C588.7,636.1,583.1,636.1,577.1,636.1z M198.2,636.1c-1.8,9.4-3.6,18.6-5.5,28c6.3,0,12.1,0,18.2,0c0.4-1.9,0.7-3.7,1.1-5.9
			c-4,0-7.5,0-11.3,0c0.4-1.9,0.7-3.5,1.1-5.3c2.9,0,5.6,0,8.4,0c0.3-2,1.1-3.7,0.9-5.9c-2.8,0-5.4,0-8.2,0c0.4-1.9,0.7-3.5,1.1-5.2
			c3.7,0,7.1,0,10.7,0c0.3-2,0.7-3.8,1-5.7C209.8,636.1,204.1,636.1,198.2,636.1z M177.8,638.9c-2-2.1-4.5-2.8-7-3.2
			c-3.6-0.5-7,0-10,2.4c-4,3.3-4,8.8-0.1,12.1c1,0.9,2.2,1.5,3.4,2.2c1,0.6,2,1.1,2.9,1.7c0.8,0.5,1.5,1.1,1.3,2.1
			c-0.2,1.1-1.1,1.7-2.2,2c-1.9,0.3-3.7,0-5.4-0.8c-0.8-0.4-1.7-0.9-2.6-1.4c-1.3,1.6-2.6,3.1-3.9,4.7c3.3,3.1,7.1,4.1,11.2,4
			c2.6-0.1,5-0.9,7-2.7c3.9-3.5,3.8-9.1-0.3-12.3c-1.2-0.9-2.6-1.6-3.9-2.4c-0.8-0.5-1.7-0.9-2.5-1.5c-1.5-1.2-1.4-2.8,0.5-3.5
			c1.1-0.4,2.4-0.5,3.5-0.3c1.5,0.3,3,1,4.7,1.5C175.5,642.1,176.7,640.5,177.8,638.9z M686.4,641.9c2.8,0,5.5,0,8.5,0
			c-1.5,7.6-2.8,14.8-4.3,22.2c2.4,0,4.5,0,6.8,0c1.5-7.4,2.9-14.7,4.4-22.3c2.9,0,5.7,0,8.5,0c0.4-2,0.7-3.8,1-5.7
			c-8.1,0-15.9,0-23.8,0C687.2,638,686.8,639.8,686.4,641.9z M371.2,664c1.5-7.5,2.9-15,4.4-22.7c0.3,0.3,0.5,0.4,0.6,0.6
			c3.5,6.9,7,13.8,10.5,20.7c0.8,1.6,0.9,1.6,3.2,1.3c1.8-9,3.6-18.1,5.3-27.4c-1.1,0-1.8,0-2.6,0c-1.5,7.6-3,15.1-4.5,22.8
			c-4-7.7-7.9-15.3-11.7-22.8c-0.9,0-1.6,0-2.5,0c-1.8,9.2-3.6,18.2-5.3,27.5c0.7,0,1.1,0.1,1.5,0.1
			C370.4,664.2,370.7,664.1,371.2,664z M184.3,636.1c-1.8,9.3-3.7,18.5-5.3,27.9c2.5,0,4.6,0,6.8,0c1.8-9.4,3.6-18.6,5.4-27.9
			C188.8,636.1,186.7,636.1,184.3,636.1z M303.5,651.4c3.6,0,7,0,10.4,0c0.1-0.8,0.3-1.5,0.4-2.4c-3.6,0-6.9,0-10.4,0
			c0.7-3.5,1.3-6.7,2-10c2.2,0,4.3,0,6.3,0c2.1,0,4.1,0,6.3,0c0.2-0.8,0.4-1.4,0.6-2.3c-5.3,0-10.3,0-15.6,0
			c-1.8,9.2-3.5,18.2-5.3,27.4c5.6,0,10.8,0,16.3,0c0.1-0.8,0.2-1.4,0.3-2.3c-4.5,0-8.8,0-13.4,0
			C302.2,658.2,302.8,654.9,303.5,651.4z M351,651.4c3.5,0,6.9,0,10.4,0c0.1-0.9,0.2-1.5,0.4-2.5c-3.5,0-6.9,0-10.4,0
			c0.7-3.5,1.3-6.7,2-10.1c4.3,0,8.5,0,12.8,0c0.1-0.8,0.2-1.5,0.3-2.1c0,0-0.1-0.1-0.2-0.1c-3.9-0.4-13.5-0.3-15.2,0.2
			c-2.7,11.7-5.2,25.1-4.9,27.3c5.2,0,10.3,0,15.7,0c0.2-0.7,0.3-1.3,0.6-2.4c-4.6,0-8.9,0-13.6,0
			C349.6,658.1,350.3,654.9,351,651.4z M322.8,636.6c1.6,9.3,3.2,18.3,4.7,27.4c1.7,0.4,2.9,0.4,3.8-1.3c4.5-8.3,9.2-16.4,13.8-24.6
			c0.2-0.4,0.3-0.9,0.5-1.5c-1.5-0.2-2.6-0.3-3.4,1.2c-3.9,7.1-7.8,14.1-11.7,21.2c-0.3,0.5-0.6,1-1,1.6c-1.4-8.1-2.7-16-4-23.9
			C324.6,636.6,323.9,636.6,322.8,636.6z M399.4,638.8c3.3,0.2,6.5-0.1,9.8,0.2c-1.4,8.6-3.4,16.7-4.7,25.1c1,0,1.7,0,2.6,0
			c1.6-8.4,3.3-16.7,4.9-25.2c3.4,0,6.6,0,9.9,0c0.1-0.8,0.3-1.5,0.4-2.3c-7.5,0-14.9,0-22.3,0C399.8,637.3,399.6,637.9,399.4,638.8
			z"/>
		<path d="M253.5,648.5c0.4-2.3,0.9-4.4,1.3-6.7c1.2,0,2.3-0.1,3.3,0c2.1,0.2,2.9,1.3,2.6,3.4c-0.2,1.6-1.1,2.6-2.6,3.1
			C256.6,648.9,255.1,649,253.5,648.5z"/>
		<path d="M227.5,641.9c1.4,0,2.5-0.1,3.6,0c1.9,0.2,2.6,1.3,2.4,3.1c-0.2,1.8-1.3,3.1-3.1,3.5c-1.2,0.2-2.5,0.2-3.9,0.3
			C226.4,646.4,227.2,644.3,227.5,641.9z"/>
		<path d="M285.9,652.6c-1.8,0-3.4,0-5.4,0c1.5-3.2,2.9-6.2,4.5-9.7C285.3,646.5,285.6,649.5,285.9,652.6z"/>
		<path d="M466.7,652.6c1.5-3.2,2.9-6.2,4.5-9.7c0.3,3.5,0.5,6.5,0.8,9.7C470.3,652.6,468.6,652.6,466.7,652.6z"/>
		<path d="M528.6,643.6c0.2,2.9,0.5,5.9,0.8,9c-1.8,0-3.4,0-5.4,0c1.5-3.1,2.8-6.1,4.2-9C528.4,643.6,528.5,643.6,528.6,643.6z"/>
	</g>
</g>
</svg>
